<mxfile host="app.diagrams.net" modified="2023-07-31T18:06:09.463Z" agent="Mozilla/5.0 (Windows NT 10.0; Win64; x64) AppleWebKit/537.36 (KHTML, like Gecko) Chrome/115.0.0.0 Safari/537.36" etag="zdfwivWyf8JwaxP9rdxH" version="21.6.6" type="device">
  <diagram name="KYC Final Project" id="FEWz2_nmJ1F3zuOmgsd2">
    <mxGraphModel dx="910" dy="1725" grid="1" gridSize="10" guides="1" tooltips="1" connect="1" arrows="1" fold="1" page="1" pageScale="1" pageWidth="827" pageHeight="1169" math="0" shadow="0">
      <root>
        <mxCell id="0" />
        <mxCell id="1" parent="0" />
        <mxCell id="610gsvpLRvbWFcsnmmsV-17" value="" style="edgeStyle=orthogonalEdgeStyle;rounded=0;orthogonalLoop=1;jettySize=auto;html=1;" parent="1" source="610gsvpLRvbWFcsnmmsV-2" target="610gsvpLRvbWFcsnmmsV-16" edge="1">
          <mxGeometry relative="1" as="geometry" />
        </mxCell>
        <mxCell id="610gsvpLRvbWFcsnmmsV-2" value="Upload KTP Image" style="rounded=1;whiteSpace=wrap;html=1;" parent="1" vertex="1">
          <mxGeometry x="160" y="160" width="90" height="40" as="geometry" />
        </mxCell>
        <mxCell id="610gsvpLRvbWFcsnmmsV-21" value="&lt;br&gt;" style="edgeStyle=orthogonalEdgeStyle;rounded=0;orthogonalLoop=1;jettySize=auto;html=1;" parent="1" source="610gsvpLRvbWFcsnmmsV-13" target="610gsvpLRvbWFcsnmmsV-20" edge="1">
          <mxGeometry relative="1" as="geometry" />
        </mxCell>
        <mxCell id="610gsvpLRvbWFcsnmmsV-25" value="" style="edgeStyle=orthogonalEdgeStyle;rounded=0;orthogonalLoop=1;jettySize=auto;html=1;" parent="1" source="610gsvpLRvbWFcsnmmsV-13" target="610gsvpLRvbWFcsnmmsV-20" edge="1">
          <mxGeometry relative="1" as="geometry" />
        </mxCell>
        <mxCell id="610gsvpLRvbWFcsnmmsV-28" value="False" style="edgeStyle=orthogonalEdgeStyle;rounded=0;orthogonalLoop=1;jettySize=auto;html=1;" parent="1" source="610gsvpLRvbWFcsnmmsV-13" target="610gsvpLRvbWFcsnmmsV-20" edge="1">
          <mxGeometry relative="1" as="geometry" />
        </mxCell>
        <mxCell id="610gsvpLRvbWFcsnmmsV-30" value="True" style="edgeStyle=orthogonalEdgeStyle;rounded=0;orthogonalLoop=1;jettySize=auto;html=1;" parent="1" source="610gsvpLRvbWFcsnmmsV-13" target="610gsvpLRvbWFcsnmmsV-29" edge="1">
          <mxGeometry relative="1" as="geometry" />
        </mxCell>
        <mxCell id="610gsvpLRvbWFcsnmmsV-13" value="Is Camera Input?" style="rhombus;whiteSpace=wrap;html=1;rounded=1;" parent="1" vertex="1">
          <mxGeometry x="305" y="135" width="80" height="80" as="geometry" />
        </mxCell>
        <mxCell id="610gsvpLRvbWFcsnmmsV-18" value="False" style="edgeStyle=orthogonalEdgeStyle;rounded=0;orthogonalLoop=1;jettySize=auto;html=1;exitX=0.5;exitY=1;exitDx=0;exitDy=0;entryX=0;entryY=0.5;entryDx=0;entryDy=0;" parent="1" source="610gsvpLRvbWFcsnmmsV-16" target="610gsvpLRvbWFcsnmmsV-2" edge="1">
          <mxGeometry x="-0.6842" relative="1" as="geometry">
            <mxPoint as="offset" />
          </mxGeometry>
        </mxCell>
        <mxCell id="610gsvpLRvbWFcsnmmsV-57" value="True" style="edgeStyle=orthogonalEdgeStyle;rounded=0;orthogonalLoop=1;jettySize=auto;html=1;entryX=0.5;entryY=0;entryDx=0;entryDy=0;exitX=1;exitY=0.5;exitDx=0;exitDy=0;" parent="1" source="610gsvpLRvbWFcsnmmsV-16" target="610gsvpLRvbWFcsnmmsV-55" edge="1">
          <mxGeometry relative="1" as="geometry" />
        </mxCell>
        <mxCell id="610gsvpLRvbWFcsnmmsV-16" value="Is KTP &lt;br&gt;Valid?" style="rhombus;whiteSpace=wrap;html=1;rounded=1;" parent="1" vertex="1">
          <mxGeometry x="165" y="260" width="80" height="80" as="geometry" />
        </mxCell>
        <mxCell id="610gsvpLRvbWFcsnmmsV-34" style="edgeStyle=orthogonalEdgeStyle;rounded=0;orthogonalLoop=1;jettySize=auto;html=1;entryX=0.5;entryY=0;entryDx=0;entryDy=0;" parent="1" source="610gsvpLRvbWFcsnmmsV-20" target="610gsvpLRvbWFcsnmmsV-38" edge="1">
          <mxGeometry relative="1" as="geometry">
            <mxPoint x="500" y="300" as="targetPoint" />
          </mxGeometry>
        </mxCell>
        <mxCell id="610gsvpLRvbWFcsnmmsV-20" value="Upload Image To Verify" style="whiteSpace=wrap;html=1;rounded=1;" parent="1" vertex="1">
          <mxGeometry x="465" y="155" width="90" height="50" as="geometry" />
        </mxCell>
        <mxCell id="610gsvpLRvbWFcsnmmsV-33" value="" style="edgeStyle=orthogonalEdgeStyle;rounded=0;orthogonalLoop=1;jettySize=auto;html=1;entryX=0;entryY=0.5;entryDx=0;entryDy=0;" parent="1" source="610gsvpLRvbWFcsnmmsV-29" target="610gsvpLRvbWFcsnmmsV-38" edge="1">
          <mxGeometry relative="1" as="geometry">
            <mxPoint x="460" y="340" as="targetPoint" />
          </mxGeometry>
        </mxCell>
        <mxCell id="610gsvpLRvbWFcsnmmsV-29" value="Take A Photo" style="whiteSpace=wrap;html=1;rounded=1;" parent="1" vertex="1">
          <mxGeometry x="300" y="280" width="90" height="40" as="geometry" />
        </mxCell>
        <mxCell id="610gsvpLRvbWFcsnmmsV-42" value="" style="edgeStyle=orthogonalEdgeStyle;rounded=0;orthogonalLoop=1;jettySize=auto;html=1;" parent="1" source="610gsvpLRvbWFcsnmmsV-38" target="610gsvpLRvbWFcsnmmsV-41" edge="1">
          <mxGeometry relative="1" as="geometry" />
        </mxCell>
        <mxCell id="610gsvpLRvbWFcsnmmsV-38" value="Detect Face From Photo Or Image To Verify" style="whiteSpace=wrap;html=1;rounded=1;" parent="1" vertex="1">
          <mxGeometry x="455" y="275" width="90" height="50" as="geometry" />
        </mxCell>
        <mxCell id="610gsvpLRvbWFcsnmmsV-43" value="False" style="edgeStyle=orthogonalEdgeStyle;rounded=0;orthogonalLoop=1;jettySize=auto;html=1;entryX=0;entryY=0.5;entryDx=0;entryDy=0;" parent="1" source="610gsvpLRvbWFcsnmmsV-41" target="610gsvpLRvbWFcsnmmsV-13" edge="1">
          <mxGeometry x="-0.8843" relative="1" as="geometry">
            <Array as="points">
              <mxPoint x="605" y="390" />
              <mxPoint x="605" y="110" />
              <mxPoint x="280" y="110" />
              <mxPoint x="280" y="175" />
            </Array>
            <mxPoint as="offset" />
          </mxGeometry>
        </mxCell>
        <mxCell id="610gsvpLRvbWFcsnmmsV-69" value="True" style="edgeStyle=orthogonalEdgeStyle;rounded=0;orthogonalLoop=1;jettySize=auto;html=1;" parent="1" source="610gsvpLRvbWFcsnmmsV-41" edge="1">
          <mxGeometry relative="1" as="geometry">
            <mxPoint x="380" y="660" as="targetPoint" />
          </mxGeometry>
        </mxCell>
        <mxCell id="610gsvpLRvbWFcsnmmsV-41" value="Is Face &lt;br&gt;Detected From Photo Or Image To Verify?" style="rhombus;whiteSpace=wrap;html=1;rounded=1;" parent="1" vertex="1">
          <mxGeometry x="445" y="380" width="110" height="95" as="geometry" />
        </mxCell>
        <mxCell id="610gsvpLRvbWFcsnmmsV-66" style="edgeStyle=orthogonalEdgeStyle;rounded=0;orthogonalLoop=1;jettySize=auto;html=1;entryX=0.5;entryY=0;entryDx=0;entryDy=0;" parent="1" source="610gsvpLRvbWFcsnmmsV-48" target="610gsvpLRvbWFcsnmmsV-13" edge="1">
          <mxGeometry relative="1" as="geometry">
            <Array as="points">
              <mxPoint x="305" y="90" />
              <mxPoint x="345" y="90" />
            </Array>
          </mxGeometry>
        </mxCell>
        <mxCell id="610gsvpLRvbWFcsnmmsV-67" style="edgeStyle=orthogonalEdgeStyle;rounded=0;orthogonalLoop=1;jettySize=auto;html=1;exitX=0;exitY=0.5;exitDx=0;exitDy=0;entryX=0.5;entryY=0;entryDx=0;entryDy=0;" parent="1" source="610gsvpLRvbWFcsnmmsV-48" target="610gsvpLRvbWFcsnmmsV-2" edge="1">
          <mxGeometry relative="1" as="geometry" />
        </mxCell>
        <mxCell id="610gsvpLRvbWFcsnmmsV-48" value="Start" style="ellipse;whiteSpace=wrap;html=1;" parent="1" vertex="1">
          <mxGeometry x="260" y="10" width="90" height="50" as="geometry" />
        </mxCell>
        <mxCell id="610gsvpLRvbWFcsnmmsV-63" style="edgeStyle=orthogonalEdgeStyle;rounded=0;orthogonalLoop=1;jettySize=auto;html=1;exitX=0.5;exitY=1;exitDx=0;exitDy=0;entryX=0.5;entryY=0;entryDx=0;entryDy=0;" parent="1" source="610gsvpLRvbWFcsnmmsV-55" target="610gsvpLRvbWFcsnmmsV-62" edge="1">
          <mxGeometry relative="1" as="geometry" />
        </mxCell>
        <mxCell id="610gsvpLRvbWFcsnmmsV-55" value="Detect Face From KTP" style="rounded=1;whiteSpace=wrap;html=1;" parent="1" vertex="1">
          <mxGeometry x="220" y="365" width="90" height="50" as="geometry" />
        </mxCell>
        <mxCell id="610gsvpLRvbWFcsnmmsV-65" value="False" style="edgeStyle=orthogonalEdgeStyle;rounded=0;orthogonalLoop=1;jettySize=auto;html=1;entryX=0;entryY=0.5;entryDx=0;entryDy=0;" parent="1" source="610gsvpLRvbWFcsnmmsV-62" target="610gsvpLRvbWFcsnmmsV-2" edge="1">
          <mxGeometry x="-0.8563" y="3" relative="1" as="geometry">
            <Array as="points">
              <mxPoint x="140" y="508" />
              <mxPoint x="140" y="180" />
            </Array>
            <mxPoint as="offset" />
          </mxGeometry>
        </mxCell>
        <mxCell id="610gsvpLRvbWFcsnmmsV-68" value="True" style="edgeStyle=orthogonalEdgeStyle;rounded=0;orthogonalLoop=1;jettySize=auto;html=1;entryX=0.5;entryY=0;entryDx=0;entryDy=0;" parent="1" source="610gsvpLRvbWFcsnmmsV-62" target="610gsvpLRvbWFcsnmmsV-70" edge="1">
          <mxGeometry relative="1" as="geometry">
            <mxPoint x="300" y="630" as="targetPoint" />
          </mxGeometry>
        </mxCell>
        <mxCell id="610gsvpLRvbWFcsnmmsV-62" value="Is Face Detected&lt;br&gt;From KTP?&lt;span style=&quot;white-space: pre;&quot;&gt;&#x9;&lt;/span&gt;" style="rhombus;whiteSpace=wrap;html=1;rounded=1;" parent="1" vertex="1">
          <mxGeometry x="210" y="460" width="110" height="95" as="geometry" />
        </mxCell>
        <mxCell id="610gsvpLRvbWFcsnmmsV-73" value="" style="edgeStyle=orthogonalEdgeStyle;rounded=0;orthogonalLoop=1;jettySize=auto;html=1;entryX=0.5;entryY=0;entryDx=0;entryDy=0;" parent="1" source="610gsvpLRvbWFcsnmmsV-70" target="610gsvpLRvbWFcsnmmsV-74" edge="1">
          <mxGeometry relative="1" as="geometry">
            <mxPoint x="380" y="750" as="targetPoint" />
          </mxGeometry>
        </mxCell>
        <mxCell id="610gsvpLRvbWFcsnmmsV-70" value="Face Verification&lt;br&gt;(Cosine Similarity)" style="rounded=1;whiteSpace=wrap;html=1;" parent="1" vertex="1">
          <mxGeometry x="320" y="630" width="120" height="50" as="geometry" />
        </mxCell>
        <mxCell id="610gsvpLRvbWFcsnmmsV-75" value="False" style="edgeStyle=orthogonalEdgeStyle;rounded=0;orthogonalLoop=1;jettySize=auto;html=1;exitX=0;exitY=0.5;exitDx=0;exitDy=0;entryX=0.5;entryY=0;entryDx=0;entryDy=0;" parent="1" source="610gsvpLRvbWFcsnmmsV-74" target="610gsvpLRvbWFcsnmmsV-48" edge="1">
          <mxGeometry relative="1" as="geometry">
            <Array as="points">
              <mxPoint x="100" y="765" />
              <mxPoint x="100" y="-10" />
              <mxPoint x="305" y="-10" />
            </Array>
          </mxGeometry>
        </mxCell>
        <mxCell id="610gsvpLRvbWFcsnmmsV-78" value="True" style="edgeStyle=orthogonalEdgeStyle;rounded=0;orthogonalLoop=1;jettySize=auto;html=1;entryX=0;entryY=0.5;entryDx=0;entryDy=0;" parent="1" source="610gsvpLRvbWFcsnmmsV-74" target="610gsvpLRvbWFcsnmmsV-77" edge="1">
          <mxGeometry relative="1" as="geometry">
            <Array as="points">
              <mxPoint x="570" y="765" />
              <mxPoint x="570" y="765" />
            </Array>
          </mxGeometry>
        </mxCell>
        <mxCell id="610gsvpLRvbWFcsnmmsV-74" value="Is Verifed?" style="rhombus;whiteSpace=wrap;html=1;rounded=1;" parent="1" vertex="1">
          <mxGeometry x="327.5" y="720" width="105" height="90" as="geometry" />
        </mxCell>
        <mxCell id="ivNM6DxZsjuBN5O1MCwm-2" style="edgeStyle=orthogonalEdgeStyle;rounded=0;orthogonalLoop=1;jettySize=auto;html=1;entryX=0.5;entryY=1;entryDx=0;entryDy=0;" edge="1" parent="1" source="610gsvpLRvbWFcsnmmsV-77" target="ivNM6DxZsjuBN5O1MCwm-1">
          <mxGeometry relative="1" as="geometry" />
        </mxCell>
        <mxCell id="610gsvpLRvbWFcsnmmsV-77" value="Otsu Tresholding" style="rounded=1;whiteSpace=wrap;html=1;" parent="1" vertex="1">
          <mxGeometry x="545" y="735" width="120" height="60" as="geometry" />
        </mxCell>
        <mxCell id="610gsvpLRvbWFcsnmmsV-83" style="edgeStyle=orthogonalEdgeStyle;rounded=0;orthogonalLoop=1;jettySize=auto;html=1;entryX=0.5;entryY=1;entryDx=0;entryDy=0;" parent="1" source="610gsvpLRvbWFcsnmmsV-80" target="610gsvpLRvbWFcsnmmsV-81" edge="1">
          <mxGeometry relative="1" as="geometry" />
        </mxCell>
        <mxCell id="610gsvpLRvbWFcsnmmsV-80" value="Upload Extracted Information To BigQuery" style="rounded=1;whiteSpace=wrap;html=1;" parent="1" vertex="1">
          <mxGeometry x="545" y="590" width="120" height="60" as="geometry" />
        </mxCell>
        <mxCell id="610gsvpLRvbWFcsnmmsV-81" value="End" style="ellipse;whiteSpace=wrap;html=1;" parent="1" vertex="1">
          <mxGeometry x="560" y="482.5" width="90" height="50" as="geometry" />
        </mxCell>
        <mxCell id="ivNM6DxZsjuBN5O1MCwm-5" style="edgeStyle=orthogonalEdgeStyle;rounded=0;orthogonalLoop=1;jettySize=auto;html=1;entryX=0.5;entryY=1;entryDx=0;entryDy=0;" edge="1" parent="1" source="ivNM6DxZsjuBN5O1MCwm-1" target="610gsvpLRvbWFcsnmmsV-80">
          <mxGeometry relative="1" as="geometry" />
        </mxCell>
        <mxCell id="ivNM6DxZsjuBN5O1MCwm-1" value="Run KTP OCR" style="rounded=1;whiteSpace=wrap;html=1;" vertex="1" parent="1">
          <mxGeometry x="680" y="660" width="120" height="50" as="geometry" />
        </mxCell>
      </root>
    </mxGraphModel>
  </diagram>
</mxfile>
